<svg width="50" height="53" viewBox="0 0 50 53" fill="none" xmlns="http://www.w3.org/2000/svg">
<path fill-rule="evenodd" clip-rule="evenodd" d="M23.6945 4.34905L5.89198 14.6341L25.7181 26.36L43.6394 15.2358L23.6945 4.34905ZM39.7803 22.4569L27.8239 29.8785V47.3679L39.7803 40.9867V22.4569ZM23.6651 47.4503L3.56627 37.2658C2.54608 36.7489 1.29159 37.1406 0.764303 38.1408C0.237012 39.141 0.636589 40.3709 1.65678 40.8878L25.3848 52.9113C25.6261 53.0336 25.9119 53.0305 26.1506 52.9032L48.5664 40.9397C49.3189 40.5381 49.7872 39.7654 49.7872 38.9254V13.925L24.8068 0.289634C24.0814 -0.106277 23.1964 -0.0956589 22.4812 0.317551L1.15165 12.6403C-0.374729 13.5221 -0.38605 15.6827 1.13094 16.5799L23.6651 29.9074V36.2512L3.64918 24.9512C2.65398 24.3893 1.38264 24.7248 0.809566 25.7005C0.236489 26.6762 0.578685 27.9226 1.57388 28.4844L23.6651 40.9561V47.4503Z" fill="#E28542"/>
</svg>
